<svg xmlns="http://www.w3.org/2000/svg" preserveAspectRatio="none" data-bbox="20 20 160.001 160.001" viewBox="20 20 160.001 160.001" height="200" width="200" data-type="shape" role="presentation" aria-hidden="true" aria-label="">
    <g>
        <path d="m115.174 164.401-.032-1.126c-.166.005-4.102.14-8.082 2.243a16.186 16.186 0 0 0-2.742 1.82c-1.271 1.05-3.193.123-3.193-1.525v-41.366h-2.253v41.349c0 1.649-1.923 2.575-3.193 1.525a15.943 15.943 0 0 0-2.744-1.82c-3.981-2.097-7.918-2.221-8.084-2.225l-.06 2.252c.036.001 3.641.126 7.16 2.002 4.591 2.448 6.919 6.644 6.919 12.471h2.254c0-5.81 2.328-10 6.92-12.455 3.52-1.882 7.126-2.017 7.162-2.018l-.032-1.127z"/>
        <path d="m84.826 35.599.032 1.126c.166-.005 4.102-.14 8.082-2.243a16.186 16.186 0 0 0 2.742-1.82c1.271-1.05 3.193-.123 3.193 1.525v41.366h2.253V34.205c0-1.649 1.923-2.575 3.193-1.525a15.943 15.943 0 0 0 2.744 1.82c3.981 2.097 7.918 2.221 8.084 2.225l.06-2.252c-.036-.001-3.641-.126-7.16-2.002-4.591-2.448-6.919-6.644-6.919-12.471h-2.254c0 5.81-2.328 10-6.92 12.455-3.52 1.882-7.126 2.017-7.162 2.018l.032 1.126z"/>
        <path d="m35.599 115.174 1.126-.032c-.005-.166-.14-4.102-2.243-8.082a16.186 16.186 0 0 0-1.82-2.742c-1.05-1.271-.123-3.193 1.525-3.193h41.366v-2.253H34.205c-1.649 0-2.575-1.923-1.525-3.193a15.943 15.943 0 0 0 1.82-2.744c2.097-3.981 2.221-7.918 2.225-8.084l-2.252-.06c-.001.036-.126 3.641-2.002 7.16C30.023 96.542 25.827 98.87 20 98.87v2.254c5.81 0 10 2.328 12.455 6.92 1.882 3.52 2.017 7.126 2.018 7.162l1.126-.032z"/>
        <path d="m164.401 84.826-1.126.032c.005.166.14 4.102 2.243 8.082.474.896 1.07 1.834 1.82 2.742 1.05 1.271.123 3.193-1.525 3.193h-41.366v2.253h41.349c1.649 0 2.575 1.923 1.525 3.193a15.943 15.943 0 0 0-1.82 2.744c-2.097 3.981-2.221 7.918-2.225 8.084l2.252.06c.001-.036.126-3.641 2.002-7.16 2.448-4.591 6.644-6.919 12.471-6.919v-2.254c-5.81 0-10-2.328-12.455-6.92-1.882-3.52-2.017-7.126-2.018-7.162l-1.127.032z"/>
        <path d="m65.191 156.268.773-.819c-.12-.114-2.999-2.801-7.3-4.129a16.175 16.175 0 0 0-3.226-.652c-1.641-.156-2.345-2.171-1.179-3.336l29.25-29.25-1.593-1.593-29.238 29.238c-1.166 1.166-3.18.462-3.336-1.18a16.03 16.03 0 0 0-.653-3.227c-1.332-4.298-4.029-7.169-4.143-7.289l-1.635 1.55c.025.026 2.486 2.663 3.648 6.479 1.516 4.977.195 9.59-3.926 13.711l.001.001 1.592 1.592.001.001c4.108-4.108 8.717-5.425 13.701-3.914 3.82 1.159 6.465 3.613 6.491 3.637l.772-.82z"/>
        <path d="m134.809 43.732-.773.819c.12.114 2.999 2.801 7.3 4.129.969.299 2.054.54 3.226.652 1.641.156 2.345 2.171 1.179 3.336l-29.25 29.25 1.593 1.593 29.238-29.238c1.166-1.166 3.18-.462 3.336 1.18a16.03 16.03 0 0 0 .653 3.227c1.332 4.298 4.029 7.169 4.143 7.289l1.635-1.55c-.025-.026-2.486-2.663-3.648-6.478-1.516-4.977-.195-9.59 3.926-13.711l-.001-.001-1.592-1.592-.001-.001c-4.108 4.108-8.717 5.425-13.701 3.914-3.82-1.159-6.465-3.613-6.491-3.637l-.772.819z"/>
        <path d="m43.732 65.191.819.773c.114-.12 2.801-2.999 4.129-7.3.299-.969.54-2.054.652-3.226.156-1.641 2.171-2.345 3.336-1.179l29.25 29.25 1.593-1.593-29.238-29.238c-1.166-1.166-.462-3.18 1.18-3.336a16.03 16.03 0 0 0 3.227-.653c4.298-1.332 7.169-4.029 7.289-4.143l-1.55-1.635c-.026.025-2.663 2.486-6.478 3.648-4.977 1.516-9.59.195-13.711-3.926l-.001.001-1.592 1.592-.001.001c4.108 4.108 5.425 8.717 3.914 13.701-1.159 3.82-3.613 6.465-3.637 6.491l.819.772z"/>
        <path d="m156.268 134.809-.819-.773c-.114.12-2.801 2.999-4.129 7.3-.299.969-.54 2.054-.652 3.226-.156 1.641-2.171 2.345-3.336 1.179l-29.25-29.25-1.593 1.593 29.238 29.238c1.166 1.166.462 3.18-1.18 3.336a16.03 16.03 0 0 0-3.227.653c-4.298 1.332-7.169 4.029-7.289 4.143l1.55 1.635c.026-.025 2.663-2.486 6.479-3.648 4.977-1.516 9.59-.195 13.711 3.926l.001-.001 1.592-1.592.001-.001c-4.108-4.108-5.425-8.717-3.914-13.701 1.159-3.82 3.613-6.465 3.637-6.491l-.82-.772z"/>
    </g>
</svg>