<svg xmlns="http://www.w3.org/2000/svg" preserveAspectRatio="none" data-bbox="20 20 160 160" viewBox="20 20 160 160" height="200" width="200" data-type="shape" role="presentation" aria-hidden="true" aria-label="">
    <g>
        <path d="M92.56 20v54.764h-2.976V20h2.976z"/>
        <path d="M98.512 20v54.764h-2.976V20h2.976z"/>
        <path d="M104.464 20v54.764h-2.976V20h2.976z"/>
        <path d="M110.416 20v54.764h-2.976V20h2.976z"/>
        <path d="M92.56 125.236V180h-2.976v-54.764h2.976z"/>
        <path d="M98.512 125.236V180h-2.976v-54.764h2.976z"/>
        <path d="M104.464 125.236V180h-2.976v-54.764h2.976z"/>
        <path d="M110.416 125.236V180h-2.976v-54.764h2.976z"/>
        <path d="M180 89.584v2.976h-54.764v-2.976H180z"/>
        <path d="M180 95.536v2.976h-54.764v-2.976H180z"/>
        <path d="M180 101.488v2.976h-54.764v-2.976H180z"/>
        <path d="M180 107.44v2.976h-54.764v-2.976H180z"/>
        <path d="M74.764 89.584v2.976H20v-2.976h54.764z"/>
        <path d="M74.764 95.536v2.976H20v-2.976h54.764z"/>
        <path d="M74.764 101.488v2.976H20v-2.976h54.764z"/>
        <path d="M74.764 107.44v2.976H20v-2.976h54.764z"/>
        <path d="m149.201 36.066 2.104 2.104-38.723 38.725-2.104-2.104L149.2 36.066z"/>
        <path d="m153.41 40.275 2.104 2.104-38.723 38.725L114.687 79l38.723-38.725z"/>
        <path d="m157.619 44.483 2.104 2.105L121 85.312l-2.105-2.104 38.724-38.725z"/>
        <path d="m161.828 48.693 2.104 2.104-38.723 38.725-2.104-2.104 38.723-38.725z"/>
        <path d="m74.788 110.48 2.104 2.103-38.723 38.725-2.104-2.104 38.723-38.725z"/>
        <path d="m78.997 114.687 2.105 2.104-38.723 38.725-2.105-2.104 38.723-38.725z"/>
        <path d="M83.206 118.895 85.311 121l-38.724 38.724-2.104-2.104 38.723-38.725z"/>
        <path d="m87.415 123.104 2.105 2.105-38.724 38.724-2.104-2.104 38.723-38.725z"/>
        <path d="m125.207 110.48 38.725 38.723-2.104 2.104-38.725-38.723 2.104-2.105z"/>
        <path d="m121 114.688 38.724 38.723-2.105 2.105-38.724-38.724 2.104-2.104z"/>
        <path d="m116.79 118.897 38.725 38.723-2.105 2.105L114.686 121l2.104-2.104z"/>
        <path d="m112.581 123.106 38.725 38.723-2.105 2.105-38.724-38.724 2.104-2.104z"/>
        <path d="M50.796 36.066 89.52 74.789l-2.104 2.104L48.692 38.17l2.104-2.104z"/>
        <path d="M46.587 40.275 85.31 78.998l-2.104 2.104L44.483 42.38l2.104-2.104z"/>
        <path d="m42.378 44.484 38.725 38.724-2.105 2.104L40.274 46.59l2.104-2.105z"/>
        <path d="m38.17 48.693 38.724 38.724-2.105 2.104-38.724-38.723 2.104-2.105z"/>
    </g>
</svg>