<svg xmlns="http://www.w3.org/2000/svg" preserveAspectRatio="none" data-bbox="19.997 20.004 160.004 160.003" viewBox="19.997 20.004 160.004 160.003" height="200" width="200" data-type="shape" role="presentation" aria-hidden="true" aria-label="">
    <g>
        <path d="m95.142 20.004 2.07 23.374-4.46.395-2.07-23.374 4.46-.395z"/>
        <path d="m107.247 156.238 2.07 23.374-4.46.395-2.07-23.374 4.46-.395z"/>
        <path d="m179.606 90.69.395 4.46-23.375 2.07-.395-4.459 23.375-2.07z"/>
        <path d="m43.371 102.794.395 4.46-23.374 2.07-.395-4.46 23.374-2.07z"/>
        <path d="m149.703 37.123 3.433 2.873-15.06 17.995-3.433-2.872 15.06-17.996z"/>
        <path d="m61.924 142.019 3.432 2.872-15.059 17.997-3.432-2.873 15.059-17.996z"/>
        <path d="m144.88 134.645 17.997 15.059-2.872 3.433-17.997-15.06 2.872-3.432z"/>
        <path d="m39.992 46.873 17.996 15.059-2.873 3.433L37.12 50.306l2.873-3.433z"/>
        <path d="m122.261 23.008 4.265 1.363-7.141 22.337-4.265-1.363 7.141-22.337z"/>
        <path d="m80.609 153.29 4.264 1.362-7.14 22.338-4.265-1.363 7.14-22.338z"/>
        <path d="m154.65 115.121 22.337 7.141-1.363 4.265-22.337-7.141 1.363-4.265z"/>
        <path d="m24.37 73.468 22.337 7.141-1.364 4.264-22.337-7.14 1.363-4.265z"/>
        <path d="m170.185 61.302 2.052 3.98-20.845 10.745-2.051-3.979 20.844-10.746z"/>
        <path d="m48.607 123.974 2.051 3.98-20.844 10.745-2.052-3.98 20.845-10.745z"/>
        <path d="m127.955 149.341 10.745 20.845-3.98 2.05-10.745-20.844 3.98-2.05z"/>
        <path d="m65.282 27.762 10.745 20.845-3.98 2.051-10.744-20.844 3.979-2.052z"/>
        <path d="M102.238 43.349v23.17h-4.476v-23.17h4.476z"/>
        <path d="M102.238 133.481v23.17h-4.476v-23.17h4.476z"/>
        <path d="M156.651 97.762v4.477h-23.17v-4.477h23.17z"/>
        <path d="M66.519 97.762v4.477h-23.17v-4.477h23.17z"/>
        <path d="m138.474 58.36 3.166 3.166-16.383 16.383-3.166-3.166 16.383-16.383z"/>
        <path d="m74.74 122.091 3.166 3.166-16.382 16.383-3.166-3.165L74.74 122.09z"/>
        <path d="m125.255 122.09 16.383 16.383-3.165 3.166-16.383-16.383 3.165-3.166z"/>
        <path d="m61.524 58.36 16.383 16.382-3.166 3.166-16.383-16.383 3.166-3.166z"/>
        <path d="m119.907 46.898 4.126 1.736-8.985 21.363-4.126-1.735 8.985-21.364z"/>
        <path d="m84.952 130.008 4.126 1.735-8.983 21.364-4.127-1.735 8.984-21.364z"/>
        <path d="m131.745 110.925 21.363 8.985-1.735 4.127-21.364-8.985 1.736-4.127z"/>
        <path d="m48.636 75.973 21.363 8.985-1.736 4.127L46.9 80.1l1.736-4.127z"/>
        <path d="m151.622 76.531 1.691 4.145-21.46 8.755-1.691-4.146 21.46-8.754z"/>
        <path d="m68.142 110.58 1.691 4.145-21.46 8.754-1.69-4.145 21.46-8.754z"/>
        <path d="m114.721 130.162 8.754 21.46-4.145 1.69-8.753-21.46 4.144-1.69z"/>
        <path d="m80.67 46.685 8.783 21.53-4.145 1.69-8.782-21.53 4.144-1.69z"/>
        <path d="m97.623 66.529 3.317 23.948-4.433.614-3.317-23.948 4.433-.614z"/>
        <path d="m103.494 108.909 3.317 23.948-4.434.614-3.317-23.948 4.434-.614z"/>
        <path d="m132.858 93.185.615 4.435-23.948 3.32-.615-4.435 23.948-3.32z"/>
        <path d="m90.479 99.057.614 4.434-23.948 3.32-.614-4.435 23.948-3.32z"/>
        <path d="m118.416 71.951 3.57 2.701-14.59 19.28-3.568-2.701 14.588-19.28z"/>
        <path d="m92.6 106.068 3.568 2.701-14.588 19.28-3.57-2.701 14.59-19.28z"/>
        <path d="m108.77 103.837 19.28 14.589-2.702 3.57-19.28-14.59 2.702-3.57z"/>
        <path d="m74.651 78.02 19.28 14.588-2.702 3.57L71.95 81.59l2.702-3.57z"/>
        <path d="m106.462 67.062 4.326 1.153-6.227 23.369-4.326-1.153 6.227-23.37z"/>
        <path d="m95.444 108.412 4.326 1.153-6.228 23.37-4.326-1.153 6.228-23.37z"/>
        <path d="m109.568 100.228 23.37 6.228-1.154 4.326-23.37-6.228 1.154-4.326z"/>
        <path d="m68.218 89.21 23.369 6.228-1.153 4.326-23.37-6.228 1.154-4.326z"/>
        <path d="m127.86 81.285 2.243 3.874-20.93 12.118-2.243-3.873 20.93-12.119z"/>
        <path d="m90.827 102.731 2.243 3.874-20.93 12.118-2.242-3.873 20.93-12.119z"/>
        <path d="m106.603 106.925 12.12 20.928-3.874 2.244-12.12-20.929 3.874-2.243z"/>
        <path d="m85.193 69.96 12.083 20.864-3.874 2.243-12.083-20.863 3.874-2.243z"/>
    </g>
</svg>